<?xml version="1.0" encoding="UTF-8" standalone="no"?>
<svg
   xmlns:dc="http://purl.org/dc/elements/1.1/"
   xmlns:cc="http://creativecommons.org/ns#"
   xmlns:rdf="http://www.w3.org/1999/02/22-rdf-syntax-ns#"
   xmlns:svg="http://www.w3.org/2000/svg"
   xmlns="http://www.w3.org/2000/svg"
   xmlns:sodipodi="http://sodipodi.sourceforge.net/DTD/sodipodi-0.dtd"
   xmlns:inkscape="http://www.inkscape.org/namespaces/inkscape"
   viewBox="0 0 100 100"
   version="1.1"
   id="svg24"
   sodipodi:docname="documentation.svg"
   inkscape:version="0.92.3 (2405546, 2018-03-11)">
  <metadata
     id="metadata28">
    <rdf:RDF>
      <cc:Work
         rdf:about="">
        <dc:format>image/svg+xml</dc:format>
        <dc:type
           rdf:resource="http://purl.org/dc/dcmitype/StillImage" />
      </cc:Work>
    </rdf:RDF>
  </metadata>
  <sodipodi:namedview
     pagecolor="#ffffff"
     bordercolor="#666666"
     borderopacity="1"
     objecttolerance="10"
     gridtolerance="10"
     guidetolerance="10"
     inkscape:pageopacity="0"
     inkscape:pageshadow="2"
     inkscape:window-width="1560"
     inkscape:window-height="770"
     id="namedview26"
     showgrid="false"
     inkscape:zoom="1.9966906"
     inkscape:cx="-151.54047"
     inkscape:cy="24"
     inkscape:window-x="484"
     inkscape:window-y="445"
     inkscape:window-maximized="0"
     inkscape:current-layer="svg24" />
  <defs
     id="defs12">
    <linearGradient
       id="0"
       x1="13.223"
       y1="44.685"
       x2="8.213"
       y2="3.112"
       gradientUnits="userSpaceOnUse">
      <stop
         stop-color="#016ed4"
         id="stop2" />
      <stop
         offset="1"
         stop-color="#00b1ff"
         id="stop4" />
    </linearGradient>
    <linearGradient
       id="1"
       x1="-1092.91"
       y1="203.1"
       x2="-1060.26"
       y2="104.85"
       gradientUnits="userSpaceOnUse"
       gradientTransform="matrix(0.35784,0,0,0.3517,379.97,-34.752)">
      <stop
         stop-color="#2e3e46"
         id="stop7" />
      <stop
         offset="1"
         stop-color="#435a64"
         id="stop9" />
    </linearGradient>
  </defs>
  <g
     transform="matrix(0.45059998,0,0,0.45059998,-100.2455,36.846577)"
     id="g22"
     style="enable-background:new">
    <g
       transform="matrix(4.414,0,0,4.414,279.98,-70.993)"
       id="g18">
      <rect
         width="32.119999"
         height="40.32"
         x="-13.85"
         y="4.8309999"
         transform="matrix(0.94958,-0.31353,0.30858,0.9512,0,0)"
         rx="0.98400003"
         id="rect14"
         style="fill:url(#1)" />
      <rect
         width="35.798"
         height="44.080002"
         x="-6.8720002"
         y="2.734"
         transform="matrix(0.99188,-0.12716,0.13593,0.99072,0,0)"
         rx="1.076"
         id="rect16"
         style="fill:url(#0)" />
    </g>
    <path
       d="m 342.1,-15.878 -16.702,4.179 10.228,69.29 16.406,-4.896 -4.372,-29.614 27.19,29.482 16.683,-8.173 -27.556,-28.1 18.697,-33.21 -18.486,-1.459 -17.766,33.07 -4.323,-30.574 M 306.418,6.702 c -0.19,0.028 -0.401,0.166 -0.53,0.276 l -5.529,7.667 c -0.235,0.329 -0.276,0.836 -0.021,1.145 l 9.506,11.539 c -1.031,2.507 -1.668,5.18 -2.067,7.916 l -13.716,5.071 c -0.379,0.163 -0.694,0.453 -0.635,0.856 l 1.375,9.313 c 0.058,0.392 0.488,0.779 0.882,0.818 l 14.278,1.318 c 1.183,2.929 2.723,5.651 4.617,8.07 l -6.222,13.291 c -0.172,0.376 0.022,0.847 0.351,1.09 l 7.481,5.555 c 0.317,0.227 0.839,0.292 1.146,0.029 l 11.352,-9.478 c 2.663,1.053 5.409,1.855 8.318,2.197 l 5.04,13.529 c 0.142,0.395 0.453,0.696 0.855,0.637 l 9.313,-1.375 c 0.393,-0.058 0.784,-0.486 0.821,-0.884 l 1.291,-14.464 c 2.768,-1.204 5.378,-2.896 7.673,-4.748 l 13.503,6.381 c 0.37,0.164 0.846,-0.013 1.089,-0.359 l 5.557,-7.482 c 0.237,-0.329 0.276,-0.837 0.022,-1.144 l -5.57,-6.789 -1.408,0.775 c -0.196,0.141 -0.434,0.064 -0.587,-0.111 0,0 -3.447,-3.852 -7.949,-8.724 -3.147,9.314 -11.299,16.514 -21.696,18.05 -14.772,2.181 -28.572,-7.903 -30.753,-22.676 -1.604,-10.867 3.543,-21.18 12.23,-26.737 l -1.017,-6.892 c -1.605,0.847 -3.11,1.686 -4.54,2.765 -10e-5,0 -0.182,0.027 -0.186,0.028 L 307.003,6.8 c -0.185,-0.079 -0.399,-0.149 -0.586,-0.101"
       id="path20"
       inkscape:connector-curvature="0"
       style="fill:#fcfcfc;fill-opacity:0.84600004" />
  </g>
</svg>
