<?xml version="1.0" encoding="iso-8859-1"?>
<!-- Generator: Adobe Illustrator 19.0.0, SVG Export Plug-In . SVG Version: 6.00 Build 0)  -->
<svg version="1.1" id="Layer_1" xmlns="http://www.w3.org/2000/svg" xmlns:xlink="http://www.w3.org/1999/xlink" x="0px" y="0px"
	 viewBox="0 0 512 512" style="enable-background:new 0 0 512 512;" xml:space="preserve">
<circle style="fill:#88EB92;" cx="256" cy="256" r="256"/>
<path style="fill:#73D17C;" d="M511.755,245.169c0.152,3.593,0.245,7.2,0.245,10.831C512,397.384,397.384,512,256,512
	c-4.42,0-8.811-0.111-13.177-0.332L117.639,386.484l280.513-254.918L511.755,245.169z"/>
<path style="fill:#E6E6E6;" d="M130.914,119.747h250.18c10.028,0,18.227,8.201,18.227,18.23v236.044
	c0,10.028-8.199,18.229-18.227,18.229h-250.18c-10.03,0-18.232-8.201-18.232-18.229V137.977
	C112.682,127.949,120.883,119.747,130.914,119.747z"/>
<polygon style="fill:#68606E;" points="166.542,142.52 166.542,369.478 157.371,369.478 157.371,142.52 "/>
<path style="fill:#FF8C8A;" d="M151.472,296.397h25.932c4.847,0,8.81,4.167,8.81,9.269v15.955c0,5.099-3.966,9.269-8.81,9.269
	h-25.932c-4.846,0-8.81-4.169-8.81-9.269v-15.955C142.663,300.565,146.626,296.397,151.472,296.397z"/>
<polygon style="fill:#68606E;" points="229.235,142.52 229.235,369.478 220.067,369.478 220.067,142.52 "/>
<path style="fill:#FF8C8A;" d="M214.169,236.862h20.967c4.847,0,8.81,4.169,8.81,9.269v15.955c0,5.099-3.963,9.269-8.81,9.269
	h-20.967c-4.847,0-8.81-4.169-8.81-9.269v-15.955C205.36,241.032,209.323,236.862,214.169,236.862z"/>
<polygon style="fill:#68606E;" points="291.933,142.52 291.933,369.478 282.765,369.478 282.765,142.52 "/>
<path style="fill:#FF8C8A;" d="M276.867,294.1h20.967c4.847,0,8.81,4.169,8.81,9.269v15.955c0,5.099-3.963,9.269-8.81,9.269h-20.967
	c-4.847,0-8.81-4.169-8.81-9.269v-15.955C268.057,298.27,272.02,294.1,276.867,294.1z"/>
<polygon style="fill:#68606E;" points="354.629,142.52 354.629,369.478 345.461,369.478 345.461,142.52 "/>
<path style="fill:#FF8C8A;" d="M339.563,193.033h20.964c4.85,0,8.81,4.169,8.81,9.269v15.955c0,5.1-3.96,9.269-8.81,9.269h-20.964
	c-4.847,0-8.81-4.169-8.81-9.269v-15.955C330.753,197.202,334.716,193.033,339.563,193.033z"/>
<g>
	<path style="fill:#E6E6E6;" d="M155.405,304.419h13.101c3.031,0,5.507,0.711,5.507,1.583v2.719c0,0.873-2.476,1.584-5.507,1.584
		h-13.101c-3.03,0-5.506-0.711-5.506-1.584v-2.719C149.899,305.13,152.375,304.419,155.405,304.419z M155.405,316.983h13.101
		c3.031,0,5.507,0.711,5.507,1.584v2.719c0,0.872-2.476,1.583-5.507,1.583h-13.101c-3.03,0-5.506-0.711-5.506-1.583v-2.719
		C149.899,317.694,152.375,316.983,155.405,316.983z"/>
	<path style="fill:#E6E6E6;" d="M218.102,244.884h13.102c3.03,0,5.506,0.711,5.506,1.583v2.719c0,0.873-2.476,1.584-5.506,1.584
		h-13.102c-3.03,0-5.506-0.711-5.506-1.584v-2.719C212.596,245.596,215.072,244.884,218.102,244.884z M218.102,257.448h13.102
		c3.03,0,5.506,0.711,5.506,1.584v2.719c0,0.872-2.476,1.583-5.506,1.583h-13.102c-3.03,0-5.506-0.711-5.506-1.583v-2.719
		C212.596,258.159,215.072,257.448,218.102,257.448z"/>
	<path style="fill:#E6E6E6;" d="M280.799,302.122H293.9c3.031,0,5.506,0.711,5.506,1.583v2.719c0,0.873-2.475,1.584-5.506,1.584
		h-13.101c-3.03,0-5.506-0.711-5.506-1.584v-2.719C275.293,302.833,277.769,302.122,280.799,302.122z M280.799,314.686H293.9
		c3.031,0,5.506,0.711,5.506,1.584v2.719c0,0.872-2.475,1.583-5.506,1.583h-13.101c-3.03,0-5.506-0.711-5.506-1.583v-2.719
		C275.293,315.396,277.769,314.686,280.799,314.686z"/>
	<path style="fill:#E6E6E6;" d="M343.496,201.054h13.102c3.03,0,5.506,0.711,5.506,1.584v2.719c0,0.873-2.476,1.584-5.506,1.584
		h-13.102c-3.03,0-5.506-0.711-5.506-1.584v-2.719C337.99,201.765,340.466,201.054,343.496,201.054z M343.496,213.618h13.102
		c3.03,0,5.506,0.711,5.506,1.583v2.719c0,0.873-2.476,1.584-5.506,1.584h-13.102c-3.03,0-5.506-0.711-5.506-1.584v-2.719
		C337.99,214.329,340.466,213.618,343.496,213.618z"/>
</g>
<g>
</g>
<g>
</g>
<g>
</g>
<g>
</g>
<g>
</g>
<g>
</g>
<g>
</g>
<g>
</g>
<g>
</g>
<g>
</g>
<g>
</g>
<g>
</g>
<g>
</g>
<g>
</g>
<g>
</g>
</svg>
