<?xml version="1.0" encoding="iso-8859-1"?>
<!-- Generator: Adobe Illustrator 19.0.0, SVG Export Plug-In . SVG Version: 6.00 Build 0)  -->
<svg version="1.1" id="Layer_1" xmlns="http://www.w3.org/2000/svg" xmlns:xlink="http://www.w3.org/1999/xlink" x="0px" y="0px"
	 viewBox="0 0 512 512" style="enable-background:new 0 0 512 512;" xml:space="preserve">
<circle style="fill:#9EA7DB;" cx="255.991" cy="255.991" r="255.991"/>
<path style="fill:#8C95C9;" d="M511.737,244.983L366.564,99.81L95.329,399.659l106.583,106.6c17.431,3.745,35.528,5.74,54.079,5.74
	C397.384,512,512,397.384,512,255.991C512,252.316,511.895,248.641,511.737,244.983z"/>
<g>
	<polygon style="fill:#E3C04D;" points="414.29,211.38 95.329,211.38 254.819,117.241 	"/>
	<polygon style="fill:#E3C04D;" points="414.29,211.38 95.329,211.38 254.819,305.52 	"/>
</g>
<path style="fill:#F8F8F8;" d="M172.633,81.888H338.58c17.041,0,30.855,13.814,30.855,30.855v198.92
	c0,17.041-13.814,30.855-30.855,30.855H172.633c-17.041,0-30.855-13.814-30.855-30.855v-198.92
	C141.778,95.703,155.592,81.888,172.633,81.888z"/>
<polygon style="fill:#FAD55C;" points="414.29,211.38 254.819,305.52 414.29,399.659 "/>
<g>
	<path style="fill:#E3C04D;" d="M414.29,294.319c-3.36,0.648-6.843,0.98-10.413,0.98c-27.249,0-49.949-19.566-54.814-45.416
		l65.227-38.503V294.319z"/>
	<polygon style="fill:#E3C04D;" points="254.819,305.52 95.329,399.659 414.29,399.659 	"/>
</g>
<circle style="fill:#FF8C8A;" cx="398.557" cy="223.999" r="55.794"/>
<polygon style="fill:#FAD55C;" points="95.329,211.38 254.819,305.52 95.329,399.659 "/>
<g>
	<polygon style="fill:#B3B3BD;" points="176.938,124.522 334.257,124.522 334.257,131.12 176.938,131.12 	"/>
	<polygon style="fill:#B3B3BD;" points="176.938,145.908 334.257,145.908 334.257,152.506 176.938,152.506 	"/>
	<polygon style="fill:#B3B3BD;" points="176.938,167.295 334.257,167.295 334.257,173.893 176.938,173.893 	"/>
	<polygon style="fill:#B3B3BD;" points="176.938,188.699 334.257,188.699 334.257,195.297 176.938,195.297 	"/>
	<polygon style="fill:#B3B3BD;" points="176.938,210.085 245.508,210.085 245.508,216.683 176.938,216.683 	"/>
</g>
<g>
	<path style="fill:#F9F9F9;" d="M433.437,218.434v11.131c-53.519,0-16.241,0-69.76,0v-11.131
		C417.196,218.434,379.918,218.434,433.437,218.434z"/>
	<path style="fill:#F9F9F9;" d="M392.991,189.119h11.131c0,53.519,0,16.241,0,69.76h-11.131
		C392.991,205.36,392.991,242.638,392.991,189.119z"/>
</g>
<g>
</g>
<g>
</g>
<g>
</g>
<g>
</g>
<g>
</g>
<g>
</g>
<g>
</g>
<g>
</g>
<g>
</g>
<g>
</g>
<g>
</g>
<g>
</g>
<g>
</g>
<g>
</g>
<g>
</g>
</svg>
