<?xml version="1.0" encoding="iso-8859-1"?>
<!-- Generator: Adobe Illustrator 19.0.0, SVG Export Plug-In . SVG Version: 6.00 Build 0)  -->
<svg version="1.1" id="Layer_1" xmlns="http://www.w3.org/2000/svg" xmlns:xlink="http://www.w3.org/1999/xlink" x="0px" y="0px"
	 viewBox="0 0 512 512" style="enable-background:new 0 0 512 512;" xml:space="preserve">
<circle style="fill:#FF8C8A;" cx="256" cy="256" r="256"/>
<path style="fill:#FA7876;" d="M511.977,258.277L376.337,122.66C127.19-23.8,13.472,269.379,125.759,379.693l132.283,132.283
	C397.719,510.873,510.756,397.93,511.977,258.277z"/>
<path style="fill:#F8F8F8;" d="M256,76.375c49.595,0,94.495,20.115,127.002,52.622S435.625,206.405,435.625,256
	s-20.115,94.495-52.622,127.002S305.595,435.625,256,435.625s-94.495-20.115-127.002-52.622S76.375,305.595,76.375,256
	s20.115-94.495,52.622-127.002S206.405,76.375,256,76.375z M351.856,126.228c-5.774,3.638-11.759,6.971-17.955,9.952
	c1.056,1.197,2.112,2.418,3.169,3.638c8.098,9.553,15.233,19.974,21.218,31.076c9.412-3.309,18.495-7.065,27.133-11.243
	c-4.694-6.267-9.811-12.205-15.35-17.721C364.413,136.25,358.311,130.993,351.856,126.228z M315.945,143.667
	c-6.854,2.418-13.895,4.46-21.101,6.032c1.244,4.248,2.441,8.544,3.544,12.909c1.807,7.112,3.427,14.388,4.812,21.781
	c12.862-1.901,25.325-4.553,37.319-7.886c-5.023-8.872-10.844-17.204-17.392-24.903
	C320.827,148.878,318.433,146.225,315.945,143.667z M276.678,152.727c-6.783,0.775-13.684,1.197-20.678,1.197
	c-6.994,0-13.895-0.422-20.678-1.197c-1.408,4.718-2.746,9.506-3.99,14.364c-1.62,6.361-3.075,12.839-4.342,19.434
	c9.506,0.845,19.176,1.291,29.01,1.291s19.505-0.446,29.01-1.291c-1.267-6.595-2.723-13.073-4.342-19.434
	C279.424,162.233,278.086,157.445,276.678,152.727z M217.155,149.699c-7.206-1.596-14.247-3.615-21.101-6.032
	c-2.488,2.558-4.882,5.211-7.182,7.933c-6.548,7.699-12.369,16.031-17.392,24.903c11.994,3.333,24.457,5.985,37.319,7.886
	c1.385-7.393,3.004-14.669,4.812-21.781C214.714,158.243,215.911,153.947,217.155,149.699z M178.099,136.18
	c-6.196-2.981-12.182-6.314-17.955-9.952c-6.455,4.765-12.557,10.022-18.214,15.702c-5.539,5.516-10.656,11.454-15.35,17.721
	c8.637,4.178,17.721,7.933,27.133,11.243c5.985-11.102,13.12-21.523,21.218-31.076C175.987,138.597,177.043,137.377,178.099,136.18z
	 M177.278,115.15c4.741,2.652,9.623,5.07,14.623,7.253c11.243-10.069,23.753-18.636,37.296-25.513
	C210.607,99.987,193.121,106.277,177.278,115.15z M211.71,129.467c3.685,1.056,7.393,1.972,11.172,2.746
	c1.737-4.882,3.591-9.67,5.539-14.364C222.601,121.369,217.014,125.266,211.71,129.467z M241.307,134.959
	c4.835,0.446,9.741,0.681,14.693,0.681c4.952,0,9.858-0.235,14.693-0.681c-3.638-9.787-7.699-19.176-12.135-28.072l-2.019-2.159
	l-0.54-0.211l-0.892,0.329l-1.666,2.042C249.006,115.783,244.945,125.172,241.307,134.959z M289.118,132.213
	c3.779-0.775,7.487-1.69,11.172-2.746c-5.305-4.201-10.891-8.098-16.711-11.618C285.527,122.543,287.381,127.331,289.118,132.213z
	 M320.1,122.402c4.999-2.183,9.905-4.6,14.623-7.253c-15.843-8.872-33.329-15.162-51.918-18.261
	C296.347,103.766,308.857,112.333,320.1,122.402z M395.56,175.001c-9.365,4.624-19.199,8.802-29.433,12.463
	c7.675,18.566,12.299,38.704,13.308,59.758h37.648C415.698,221.005,408.023,196.43,395.56,175.001z M348.711,193.144
	c-13.637,3.967-27.86,7.088-42.553,9.271c2.019,14.552,3.216,29.527,3.568,44.806h51.402
	C360.118,228.116,355.776,209.903,348.711,193.144z M288.015,204.622c-10.492,0.962-21.171,1.479-32.015,1.479
	c-10.844,0-21.523-0.516-32.015-1.479c-1.925,13.801-3.075,28.048-3.403,42.6h70.859
	C291.089,232.67,289.939,218.423,288.015,204.622z M205.842,202.415c-14.693-2.183-28.916-5.304-42.553-9.271
	c-7.065,16.758-11.407,34.972-12.416,54.078h51.402C202.627,231.942,203.824,216.967,205.842,202.415z M145.873,187.464
	c-10.233-3.661-20.068-7.839-29.433-12.463c-12.463,21.429-20.138,46.003-21.523,72.221h37.648
	C133.574,226.168,138.198,206.03,145.873,187.464z M385.42,352.349c-8.684-4.178-17.768-7.957-27.25-11.29
	c-5.962,11.055-13.05,21.406-21.101,30.912c-1.08,1.267-2.183,2.535-3.309,3.779c6.243,3.004,12.275,6.361,18.096,10.022
	c6.455-4.765,12.557-10.022,18.214-15.702C375.609,364.554,380.726,358.616,385.42,352.349z M340.402,335.473
	c-11.947-3.333-24.387-5.962-37.202-7.863c-1.408,7.393-3.004,14.669-4.812,21.781c-1.103,4.366-2.3,8.661-3.544,12.909
	c7.135,1.573,14.13,3.568,20.936,5.985c2.535-2.629,4.999-5.328,7.346-8.098C329.629,352.537,335.426,344.275,340.402,335.473z
	 M285.01,325.475c-9.506-0.845-19.176-1.291-29.01-1.291s-19.505,0.446-29.01,1.291c1.267,6.595,2.723,13.073,4.342,19.434
	c1.244,4.859,2.582,9.647,3.99,14.364c6.807-0.775,13.684-1.174,20.678-1.174c6.994,0,13.871,0.399,20.678,1.174
	c1.408-4.718,2.746-9.506,3.99-14.364C282.288,338.548,283.743,332.07,285.01,325.475z M208.799,327.611
	c-12.839,1.901-25.255,4.53-37.202,7.863c4.976,8.802,10.773,17.064,17.275,24.715c2.347,2.77,4.812,5.469,7.346,8.098
	c6.807-2.418,13.801-4.413,20.936-5.985c-1.244-4.248-2.441-8.543-3.544-12.909C211.804,342.28,210.208,335.004,208.799,327.611z
	 M153.83,341.06c-9.482,3.333-18.566,7.112-27.25,11.29c4.694,6.267,9.811,12.205,15.35,17.721
	c5.657,5.68,11.759,10.938,18.214,15.702c5.821-3.661,11.853-7.018,18.096-10.022c-1.127-1.244-2.23-2.511-3.309-3.779
	C166.88,362.465,159.792,352.114,153.83,341.06z M116.44,336.999c9.388-4.624,19.246-8.802,29.503-12.487
	c-7.675-18.566-12.346-38.68-13.355-59.734H94.917C96.302,290.996,103.977,315.57,116.44,336.999z M163.383,318.856
	c13.59-3.967,27.79-7.088,42.459-9.271c-2.019-14.552-3.216-29.527-3.568-44.806h-51.378
	C151.929,283.86,156.271,302.097,163.383,318.856z M223.985,307.402c10.492-0.986,21.171-1.502,32.015-1.502
	c10.844,0,21.523,0.516,32.015,1.502c1.925-13.825,3.075-28.072,3.427-42.624h-70.859
	C220.911,279.33,222.061,293.577,223.985,307.402z M306.158,309.585c14.669,2.183,28.87,5.304,42.459,9.271
	c7.112-16.758,11.454-34.996,12.487-54.078h-51.378C309.373,280.058,308.176,295.033,306.158,309.585z M366.056,324.512
	c10.257,3.685,20.115,7.863,29.503,12.487c12.463-21.429,20.138-46.003,21.523-72.221h-37.671
	C378.402,285.832,373.731,305.947,366.056,324.512z M334.722,396.85c-4.765-2.676-9.694-5.117-14.763-7.3
	c-11.055,9.928-23.354,18.519-36.638,25.466C301.698,411.895,319.02,405.652,334.722,396.85z M300.079,382.463
	c-3.591-1.009-7.253-1.901-10.961-2.676c-1.713,4.765-3.521,9.482-5.422,14.083C289.399,390.396,294.868,386.594,300.079,382.463z
	 M270.693,377.041c-4.835-0.446-9.741-0.657-14.693-0.657c-4.952,0-9.858,0.211-14.693,0.657
	c3.826,10.327,8.145,20.185,12.862,29.527l1.831,0.681l1.831-0.681C262.548,397.226,266.867,387.368,270.693,377.041z
	 M222.882,379.787c-3.708,0.775-7.37,1.666-10.961,2.676c5.211,4.131,10.679,7.933,16.383,11.407
	C226.403,389.269,224.596,384.552,222.882,379.787z M192.041,389.551c-5.07,2.183-9.999,4.624-14.763,7.3
	c15.702,8.802,33.024,15.045,51.402,18.167C215.395,408.07,203.096,399.479,192.041,389.551z"/>
<g>
</g>
<g>
</g>
<g>
</g>
<g>
</g>
<g>
</g>
<g>
</g>
<g>
</g>
<g>
</g>
<g>
</g>
<g>
</g>
<g>
</g>
<g>
</g>
<g>
</g>
<g>
</g>
<g>
</g>
</svg>
