<?xml version="1.0" encoding="iso-8859-1"?>
<!-- Generator: Adobe Illustrator 19.0.0, SVG Export Plug-In . SVG Version: 6.00 Build 0)  -->
<svg version="1.1" id="Layer_1" xmlns="http://www.w3.org/2000/svg" xmlns:xlink="http://www.w3.org/1999/xlink" x="0px" y="0px"
	 viewBox="0 0 512 512" style="enable-background:new 0 0 512 512;" xml:space="preserve">
<circle style="fill:#9EA7DB;" cx="256" cy="256" r="256"/>
<path style="fill:#8C95C9;" d="M510.8,280.4C498.5,410.4,389.1,512,256,512c-9.2,0-18.4-0.5-27.3-1.5l-96.1-96.1L379.5,149
	L510.8,280.4z"/>
<polygon style="fill:#F8F8F8;" points="132.6,97.6 328,97.6 379.4,149.1 379.4,414.4 132.6,414.4 "/>
<polygon style="fill:#68606E;" points="132.5,97.6 328,97.6 379.4,149.1 379.4,173.8 132.5,173.8 "/>
<polygon style="fill:#EBECEC;" points="328,97.6 328,149.1 379.4,149.1 "/>
<path style="fill:#F8F8F8;" d="M150.1,158.6v-44.7h13.6l8,30.5l7.9-30.5h13.6v44.7h-8.4v-35.2l-8.8,35.2h-8.7l-8.8-35.2v35.2H150.1z
	 M200.4,136.5c0-4.6,0.7-8.4,2.1-11.5c1-2.3,2.4-4.3,4.2-6.1c1.8-1.8,3.7-3.2,5.8-4c2.8-1.2,6-1.8,9.7-1.8c6.6,0,11.9,2.1,15.8,6.1
	c4,4.1,5.9,9.8,5.9,17.1c0,7.2-2,12.9-5.9,17s-9.2,6.1-15.8,6.1c-6.7,0-12-2-15.9-6.1C202.4,149.2,200.4,143.6,200.4,136.5z
	 M209.7,136.2c0,5.1,1.2,8.9,3.5,11.5s5.3,3.9,8.9,3.9c3.6,0,6.6-1.3,8.9-3.9c2.3-2.6,3.5-6.5,3.5-11.7c0-5.1-1.1-9-3.4-11.5
	c-2.2-2.5-5.2-3.8-9-3.8c-3.7,0-6.7,1.3-9,3.8C210.9,127.2,209.7,131,209.7,136.2z M262.3,158.6l-16-44.7h9.8l11.4,33.1l10.9-33.1
	h9.6l-15.9,44.7H262.3z"/>
<polygon style="fill:#857E8A;" points="165.9,250 346.1,250 346.1,316.9 165.9,316.9 "/>
<path style="fill:#68606E;" d="M346.1,250v-24.8H165.9V250h20.8v66.9h-20.8v24.8H346v-24.8h-20.8V250H346.1z M273.7,230.4h14.8v13.4
	h-14.8V230.4z M310.3,250v66.9H201.7V250H310.3z M248.6,230.4h14.8v13.4h-14.8L248.6,230.4L248.6,230.4z M223.5,230.4h14.8v13.4
	h-14.8V230.4z M198.4,230.4h14.8v13.4h-14.8V230.4z M188,336.5h-14.8v-13.4H188V336.5z M188,243.8h-14.8v-13.4H188V243.8z
	 M213.2,336.5h-14.8v-13.4h14.8V336.5z M238.3,336.5h-14.8v-13.4h14.8V336.5z M263.4,336.5h-14.8v-13.4h14.8V336.5z M288.5,336.5
	h-14.8v-13.4h14.8V336.5z M313.6,336.5h-14.8v-13.4h14.8V336.5z M313.6,243.8h-14.8v-13.4h14.8V243.8z M338.8,323.1v13.4H324v-13.4
	H338.8z M324,243.8v-13.4h14.8v13.4H324z"/>
<path style="fill:#FAD55C;" d="M244.2,259.2l26.1,22c1.3,1.1,1.3,3.4,0,4.4l-26.1,22c-1.6,1.3-3.6,0.7-3.6-1.4c0-14.9,0-30.8,0-45.7
	C240.7,258.4,242.7,257.8,244.2,259.2z"/>
<g>
</g>
<g>
</g>
<g>
</g>
<g>
</g>
<g>
</g>
<g>
</g>
<g>
</g>
<g>
</g>
<g>
</g>
<g>
</g>
<g>
</g>
<g>
</g>
<g>
</g>
<g>
</g>
<g>
</g>
</svg>
