<?xml version="1.0" encoding="iso-8859-1"?>
<!-- Generator: Adobe Illustrator 19.0.0, SVG Export Plug-In . SVG Version: 6.00 Build 0)  -->
<svg version="1.1" id="Layer_1" xmlns="http://www.w3.org/2000/svg" xmlns:xlink="http://www.w3.org/1999/xlink" x="0px" y="0px"
	 viewBox="0 0 512 512" style="enable-background:new 0 0 512 512;" xml:space="preserve">
<circle style="fill:#5ED1B3;" cx="256" cy="256" r="256"/>
<path style="fill:#4BC2A2;" d="M511.583,270.457C504.085,405.11,392.532,512,256,512c-1.256,0-2.501-0.028-3.746-0.044
	L96.791,356.492l320.108-175.239L511.583,270.457z"/>
<polygon style="fill:#EAEAED;" points="214.286,151.25 297.714,151.25 324.972,192.008 324.972,192.014 187.034,192.014 
	187.034,192.008 "/>
<path style="fill:#F8F8F8;" d="M107.69,175.189h296.614c8.893,0,16.163,7.276,16.163,16.169v153.229
	c0,8.888-7.27,16.163-16.163,16.163H107.69c-8.888,0-16.158-7.276-16.158-16.163V191.358
	C91.533,182.465,98.803,175.189,107.69,175.189z"/>
<ellipse style="fill:#EAEAED;" cx="270.374" cy="272.119" rx="75.675" ry="75.681"/>
<polygon style="fill:#FF8C8A;" points="420.467,226.53 420.467,305.251 91.533,305.251 91.533,226.53 "/>
<path style="fill:#FA7876;" d="M338.434,305.251H202.319c-4.88-10.01-7.62-21.249-7.62-33.132c0-17.119,5.686-32.91,15.268-45.588
	H330.78c9.582,12.678,15.274,28.469,15.274,45.588C346.054,284.002,343.308,295.241,338.434,305.251z"/>
<ellipse style="fill:#99959C;" cx="256" cy="265.894" rx="75.675" ry="75.681"/>
<circle style="fill:#68606E;" cx="256" cy="265.894" r="63.086"/>
<circle style="fill:#8C95C9;" cx="256" cy="265.894" r="55.16"/>
<path style="fill:#817C85;" d="M346.532,159.676h38.785c4.063,0,7.387,3.324,7.387,7.392v8.121h-53.559v-8.121
	C339.145,163,342.469,159.676,346.532,159.676z"/>
<path style="fill:#FF8C8A;" d="M128.839,165.212h10.266c2.612,0,4.752,2.14,4.752,4.752v5.225h-19.771v-5.225
	C124.087,167.352,126.227,165.212,128.839,165.212z"/>
<path style="fill:#EAEAED;" d="M420.467,334.51v10.077c0,8.888-7.27,16.163-16.163,16.163H107.69
	c-8.888,0-16.158-7.276-16.158-16.163V334.51c0,8.893,7.27,16.169,16.158,16.169h296.614
	C413.197,350.679,420.467,343.403,420.467,334.51z"/>
<circle style="fill:#9EA7DB;" cx="253.771" cy="263.659" r="46.778"/>
<g>
	<circle style="fill:#B9BFE5;" cx="236.268" cy="245.234" r="18.514"/>
	<circle style="fill:#B9BFE5;" cx="280.606" cy="297.414" r="7.837"/>
</g>
<g>
</g>
<g>
</g>
<g>
</g>
<g>
</g>
<g>
</g>
<g>
</g>
<g>
</g>
<g>
</g>
<g>
</g>
<g>
</g>
<g>
</g>
<g>
</g>
<g>
</g>
<g>
</g>
<g>
</g>
</svg>
