<?xml version="1.0" encoding="iso-8859-1"?>
<!-- Generator: Adobe Illustrator 19.0.0, SVG Export Plug-In . SVG Version: 6.00 Build 0)  -->
<svg version="1.1" id="Layer_1" xmlns="http://www.w3.org/2000/svg" xmlns:xlink="http://www.w3.org/1999/xlink" x="0px" y="0px"
	 viewBox="0 0 512 512" style="enable-background:new 0 0 512 512;" xml:space="preserve">
<path style="fill:#88EB92;" d="M255.991,0C397.391,0,512,114.609,512,255.991C512,397.391,397.391,512,255.991,512
	C114.609,512,0,397.391,0,255.991C0,114.609,114.609,0,255.991,0z"/>
<path style="fill:#73D17C;" d="M510.827,280.437C498.531,410.348,389.145,512,255.991,512c-9.236,0-18.344-0.495-27.342-1.448
	l-96.1-96.118l246.901-265.374L510.827,280.437z"/>
<polygon style="fill:#F8F8F8;" points="132.549,97.566 327.956,97.566 379.451,149.061 379.451,414.434 132.549,414.434 "/>
<polygon style="fill:#9EA7DB;" points="132.549,97.566 327.956,97.566 379.451,149.061 379.451,173.837 132.549,173.837 "/>
<polygon style="fill:#EBECEC;" points="327.956,97.566 327.956,149.061 379.451,149.061 "/>
<path style="fill:#F8F8F8;" d="M150.252,158.553v-44.733h14.477c5.498,0,9.053,0.22,10.721,0.678c2.566,0.678,4.71,2.126,6.432,4.38
	c1.741,2.254,2.602,5.15,2.602,8.705c0,2.749-0.495,5.058-1.484,6.927c-1.008,1.888-2.272,3.354-3.793,4.416
	c-1.539,1.063-3.097,1.778-4.673,2.126c-2.162,0.421-5.278,0.641-9.364,0.641h-5.864v16.86H150.252z M159.305,121.389v12.736h4.93
	c3.555,0,5.901-0.238,7.11-0.696c1.191-0.476,2.126-1.209,2.804-2.217c0.678-0.99,1.026-2.144,1.026-3.482
	c0-1.631-0.476-2.987-1.429-4.05c-0.953-1.063-2.162-1.723-3.628-1.997c-1.063-0.183-3.225-0.293-6.469-0.293H159.305z
	 M191.924,158.553v-44.733h8.76l18.417,29.981v-29.981h8.356v44.733h-9.035l-18.142-29.394v29.394H191.924z M257.842,142.134v-7.568
	h19.425v17.849c-1.888,1.833-4.618,3.464-8.21,4.856s-7.22,2.107-10.904,2.107c-4.673,0-8.741-0.99-12.223-2.95
	c-3.464-1.979-6.084-4.801-7.843-8.448c-1.741-3.665-2.621-7.642-2.621-11.948c0-4.655,0.99-8.796,2.932-12.443
	c1.961-3.628,4.801-6.414,8.576-8.338c2.859-1.503,6.432-2.236,10.702-2.236c5.534,0,9.878,1.173,13.011,3.5
	c3.115,2.346,5.113,5.553,6.011,9.676l-8.998,1.686c-0.623-2.181-1.796-3.922-3.537-5.204c-1.741-1.283-3.903-1.906-6.506-1.906
	c-3.94,0-7.074,1.246-9.383,3.757c-2.327,2.511-3.5,6.231-3.5,11.142c0,5.333,1.173,9.309,3.537,11.967
	c2.364,2.657,5.443,3.995,9.273,3.995c1.869,0,3.775-0.385,5.663-1.118c1.906-0.733,3.537-1.649,4.893-2.712v-5.663H257.842z"/>
<polygon style="fill:#9EA7DB;" points="180.324,215.29 331.676,215.29 331.676,366.659 180.324,366.659 "/>
<polygon style="fill:#BACFFF;" points="192.071,229.877 319.929,229.877 319.929,327.644 192.071,327.644 "/>
<polygon style="fill:#F8F8F8;" points="192.071,229.877 217.635,229.877 217.635,254.323 192.071,254.323 "/>
<polygon style="fill:#58515E;" points="243.218,229.877 217.635,229.877 217.635,254.323 243.218,254.323 "/>
<polygon style="fill:#F8F8F8;" points="243.218,229.877 268.782,229.877 268.782,254.323 243.218,254.323 "/>
<polygon style="fill:#58515E;" points="294.346,229.877 268.782,229.877 268.782,254.323 294.346,254.323 "/>
<polygon style="fill:#F8F8F8;" points="294.346,229.877 319.929,229.877 319.929,254.323 294.346,254.323 "/>
<polygon style="fill:#58515E;" points="192.071,278.751 217.635,278.751 217.635,254.305 192.071,254.305 "/>
<polygon style="fill:#F8F8F8;" points="243.218,278.751 217.635,278.751 217.635,254.305 243.218,254.305 "/>
<polygon style="fill:#58515E;" points="243.218,278.751 268.782,278.751 268.782,254.305 243.218,254.305 "/>
<polygon style="fill:#F8F8F8;" points="294.346,278.751 268.782,278.751 268.782,254.305 294.346,254.305 "/>
<polygon style="fill:#58515E;" points="294.346,278.751 319.929,278.751 319.929,254.305 294.346,254.305 "/>
<polygon style="fill:#F8F8F8;" points="192.071,278.751 217.635,278.751 217.635,303.198 192.071,303.198 "/>
<polygon style="fill:#58515E;" points="243.218,278.751 217.635,278.751 217.635,303.198 243.218,303.198 "/>
<polygon style="fill:#F8F8F8;" points="243.218,278.751 268.782,278.751 268.782,303.198 243.218,303.198 "/>
<polygon style="fill:#58515E;" points="294.346,278.751 268.782,278.751 268.782,303.198 294.346,303.198 "/>
<polygon style="fill:#F8F8F8;" points="294.346,278.751 319.929,278.751 319.929,303.198 294.346,303.198 "/>
<polygon style="fill:#58515E;" points="192.071,327.644 217.635,327.644 217.635,303.198 192.071,303.198 "/>
<polygon style="fill:#FFFFFF;" points="243.218,327.644 217.635,327.644 217.635,303.198 243.218,303.198 "/>
<polygon style="fill:#666666;" points="243.218,327.644 268.782,327.644 268.782,303.198 243.218,303.198 "/>
<polygon style="fill:#FFFFFF;" points="294.346,327.644 268.782,327.644 268.782,303.198 294.346,303.198 "/>
<polygon style="fill:#58515E;" points="294.346,327.644 319.929,327.644 319.929,303.198 294.346,303.198 "/>
<polygon style="fill:#5ED1B3;" points="319.929,327.644 275.049,267.628 246.242,306.258 224.342,290.186 192.071,327.644 "/>
<path style="fill:#FFD630;" d="M226.798,241.294c7.788,0,14.092,6.322,14.092,14.111s-6.304,14.092-14.092,14.092
	s-14.111-6.304-14.111-14.092S219.01,241.294,226.798,241.294z"/>
<g>
</g>
<g>
</g>
<g>
</g>
<g>
</g>
<g>
</g>
<g>
</g>
<g>
</g>
<g>
</g>
<g>
</g>
<g>
</g>
<g>
</g>
<g>
</g>
<g>
</g>
<g>
</g>
<g>
</g>
</svg>
