<?xml version="1.0" encoding="iso-8859-1"?>
<!-- Generator: Adobe Illustrator 19.0.0, SVG Export Plug-In . SVG Version: 6.00 Build 0)  -->
<svg version="1.1" id="Layer_1" xmlns="http://www.w3.org/2000/svg" xmlns:xlink="http://www.w3.org/1999/xlink" x="0px" y="0px"
	 viewBox="0 0 511.983 511.983" style="enable-background:new 0 0 511.983 511.983;" xml:space="preserve">
<circle style="fill:#FF8C8A;" cx="255.991" cy="255.991" r="255.991"/>
<path style="fill:#FA7876;" d="M274.296,511.335L104.178,341.217l61.898-28.158l-63.455-91.753l81.025-45.728l86.048,90.353
	l20.825-9.485l-7.175-73.29l8.365-56.91l18.883,1.348l81.34,82.723l32.918-14.963l85.908,85.908
	C498.647,404.777,398.757,502.55,274.296,511.335z"/>
<path style="fill:#FAD55C;" d="M117.268,216.546h179.726c10.063,0,18.305,8.225,18.305,18.288v93.643
	c0,10.063-8.243,18.288-18.305,18.288H117.268c-10.063,0-18.305-8.225-18.305-18.288v-93.643
	C98.963,224.771,107.206,216.546,117.268,216.546z"/>
<g>
	<polygon style="fill:#68606E;" points="315.299,246.716 350.807,246.716 350.807,322.019 315.299,322.019 	"/>
	<polygon style="fill:#68606E;" points="424.85,195.353 424.85,367.957 350.807,322.019 350.807,246.716 	"/>
</g>
<polygon style="fill:#58515E;" points="424.85,357.632 424.85,367.957 350.807,322.019 350.807,312.167 "/>
<path style="fill:#F8F8F8;" d="M255.501,99.453c-37.555,0-67.988,30.45-67.988,68.005c0,37.538,30.433,67.988,67.988,67.988
	s67.988-30.45,67.988-67.988C323.489,129.903,293.056,99.453,255.501,99.453z"/>
<path style="fill:#D9D9DD;" d="M255.501,147.158c-11.2,0-20.3,9.083-20.3,20.3c0,11.2,9.1,20.283,20.3,20.283
	c11.2,0,20.3-9.083,20.3-20.283C275.801,156.241,266.701,147.158,255.501,147.158z"/>
<path style="fill:#F8F8F8;" d="M136.763,138.898c-26.67,0-48.283,21.613-48.283,48.265c0,26.67,21.613,48.283,48.283,48.283
	s48.283-21.613,48.283-48.283C185.046,160.511,163.433,138.898,136.763,138.898z"/>
<path style="fill:#D9D9DD;" d="M136.763,172.761c-7.963,0-14.403,6.44-14.403,14.403s6.44,14.42,14.403,14.42
	s14.403-6.458,14.403-14.42S144.726,172.761,136.763,172.761z"/>
<polygon style="fill:#58515E;" points="315.299,310.137 350.807,310.137 350.807,322.019 315.299,322.019 "/>
<path style="fill:#E3C04D;" d="M315.299,314.827v13.65c0,10.063-8.243,18.288-18.305,18.288H117.268
	c-10.063,0-18.305-8.225-18.305-18.288v-13.65c0,10.063,8.243,18.305,18.305,18.305h179.726
	C307.057,333.132,315.299,324.889,315.299,314.827z"/>
<g>
</g>
<g>
</g>
<g>
</g>
<g>
</g>
<g>
</g>
<g>
</g>
<g>
</g>
<g>
</g>
<g>
</g>
<g>
</g>
<g>
</g>
<g>
</g>
<g>
</g>
<g>
</g>
<g>
</g>
</svg>
