<?xml version="1.0" encoding="iso-8859-1"?>
<!-- Generator: Adobe Illustrator 19.0.0, SVG Export Plug-In . SVG Version: 6.00 Build 0)  -->
<svg version="1.1" id="Layer_1" xmlns="http://www.w3.org/2000/svg" xmlns:xlink="http://www.w3.org/1999/xlink" x="0px" y="0px"
	 viewBox="0 0 512.1 512.1" style="enable-background:new 0 0 512.1 512.1;" xml:space="preserve">
<circle style="fill:#9EA7DB;" cx="256" cy="256" r="256"/>
<path style="fill:#8C95C9;" d="M508.8,215.5L396.7,103.4h-65.8v11H207.4l-14.3-12.1l-76.9,1.2v296.4l110.5,110.5
	c9.6,1.1,19.4,1.7,29.4,1.7c141.4,0,256-114.6,256-256C512,242.2,510.9,228.7,508.8,215.5z"/>
<path style="fill:#F8F8F8;" d="M330.9,103.4v11H182v-11h-65.8v296.4H182v-11h148.9v11h65.8V103.4H330.9z M173.2,383.3
	c0,1.3-1.1,2.4-2.6,2.4h-44c-1.4,0-2.6-1.1-2.6-2.4v-30c0-1.3,1.2-2.4,2.6-2.4h44c1.4,0,2.6,1.1,2.6,2.4V383.3z M173.2,336.6
	c0,1.3-1.1,2.4-2.6,2.4h-44c-1.4,0-2.6-1.1-2.6-2.4v-30c0-1.3,1.2-2.4,2.6-2.4h44c1.4,0,2.6,1.1,2.6,2.4V336.6z M173.2,289.9
	c0,1.3-1.1,2.4-2.6,2.4h-44c-1.4,0-2.6-1.1-2.6-2.4v-30c0-1.3,1.2-2.4,2.6-2.4h44c1.4,0,2.6,1.1,2.6,2.4V289.9z M173.2,243.3
	c0,1.3-1.1,2.4-2.6,2.4h-44c-1.4,0-2.6-1.1-2.6-2.4v-30c0-1.3,1.2-2.4,2.6-2.4h44c1.4,0,2.6,1.1,2.6,2.4V243.3z M173.2,196.6
	c0,1.3-1.1,2.4-2.6,2.4h-44c-1.4,0-2.6-1.1-2.6-2.4v-30c0-1.3,1.2-2.4,2.6-2.4h44c1.4,0,2.6,1.1,2.6,2.4V196.6z M173.2,150
	c0,1.3-1.1,2.4-2.6,2.4h-44c-1.4,0-2.6-1.1-2.6-2.4v-30c0-1.3,1.2-2.4,2.6-2.4h44c1.4,0,2.6,1.1,2.6,2.4V150z M388.8,383.3
	c0,1.3-1.2,2.4-2.6,2.4h-44c-1.4,0-2.6-1.1-2.6-2.4v-30c0-1.3,1.1-2.4,2.6-2.4h44c1.4,0,2.6,1.1,2.6,2.4V383.3z M388.8,336.6
	c0,1.3-1.2,2.4-2.6,2.4h-44c-1.4,0-2.6-1.1-2.6-2.4v-30c0-1.3,1.1-2.4,2.6-2.4h44c1.4,0,2.6,1.1,2.6,2.4V336.6z M388.8,289.9
	c0,1.3-1.2,2.4-2.6,2.4h-44c-1.4,0-2.6-1.1-2.6-2.4v-30c0-1.3,1.1-2.4,2.6-2.4h44c1.4,0,2.6,1.1,2.6,2.4V289.9z M388.8,243.3
	c0,1.3-1.2,2.4-2.6,2.4h-44c-1.4,0-2.6-1.1-2.6-2.4v-30c0-1.3,1.1-2.4,2.6-2.4h44c1.4,0,2.6,1.1,2.6,2.4V243.3z M388.8,196.6
	c0,1.3-1.2,2.4-2.6,2.4h-44c-1.4,0-2.6-1.1-2.6-2.4v-30c0-1.3,1.1-2.4,2.6-2.4h44c1.4,0,2.6,1.1,2.6,2.4V196.6z M388.8,150
	c0,1.3-1.2,2.4-2.6,2.4h-44c-1.4,0-2.6-1.1-2.6-2.4v-30c0-1.3,1.1-2.4,2.6-2.4h44c1.4,0,2.6,1.1,2.6,2.4V150z"/>
<circle style="fill:#FAD55C;" cx="256.5" cy="251.6" r="70.2"/>
<path style="fill:#E3C04D;" d="M250.8,211.2l47.8,40.4c2.4,2,2.4,6.1,0,8.1L250.8,300c-2.8,2.4-6.6,1.4-6.6-2.6
	c0-27.3,0-56.4,0-83.7C244.2,209.8,247.9,208.8,250.8,211.2z"/>
<path style="fill:#F8F8F8;" d="M246.1,204.7l47.8,40.4c2.4,2,2.4,6.1,0,8.1l-47.8,40.4c-2.9,2.4-6.6,1.4-6.6-2.6
	c0-27.3,0-56.4,0-83.7C239.5,203.3,243.2,202.3,246.1,204.7z"/>
<g>
</g>
<g>
</g>
<g>
</g>
<g>
</g>
<g>
</g>
<g>
</g>
<g>
</g>
<g>
</g>
<g>
</g>
<g>
</g>
<g>
</g>
<g>
</g>
<g>
</g>
<g>
</g>
<g>
</g>
</svg>
