<?xml version="1.0" encoding="iso-8859-1"?>
<!-- Generator: Adobe Illustrator 19.0.0, SVG Export Plug-In . SVG Version: 6.00 Build 0)  -->
<svg version="1.1" id="Layer_1" xmlns="http://www.w3.org/2000/svg" xmlns:xlink="http://www.w3.org/1999/xlink" x="0px" y="0px"
	 viewBox="0 0 512 512" style="enable-background:new 0 0 512 512;" xml:space="preserve">
<circle style="fill:#FF8C8A;" cx="256" cy="256" r="256"/>
<path style="fill:#FA7876;" d="M510.733,281.654C497.847,411.004,388.729,512,256,512c-9.083,0-18.026-0.469-26.874-1.408
	L124.585,406.051l59.171-64.898c13.003,0.305,12.44-14.294,7.511-16.054l43.868-50.58L403.07,174.015L510.733,281.654z"/>
<path style="fill:#F7F7F8;" d="M212.696,253.606l45.159,37.789c-17.204,17.603-29.198,41.051-37.296,68.888l-95.974,45.769
	l57.129-62.645l2.042-2.253c2.934,0.352,6.079-0.821,8.238-3.38c3.262-3.92,2.934-9.6-0.728-12.674
	c-3.685-3.075-9.342-2.394-12.604,1.526c-2.159,2.558-2.746,5.868-1.878,8.708l-1.854,2.394l-51.59,67.292l28.118-102.569
	C177.442,289.587,198.402,273.65,212.696,253.606z"/>
<path style="fill:#D9DADA;" d="M235.275,272.5l22.579,18.894c-17.204,17.603-29.198,41.051-37.296,68.888l-95.974,45.769
	l57.129-62.645l2.042-2.253c2.934,0.352,6.079-0.821,8.238-3.38c3.262-3.92,2.934-9.6-0.728-12.674L235.275,272.5z"/>
<path style="fill:#68606E;" d="M302.262,89.66l100.809,84.355l-56.612,58.866c-8.379,8.708-53.373,49.102-76.446,56.683
	l-2.723,3.239c-4.694,5.633-8.121,1.831-12.862-2.136l-38.587-32.296c-4.741-3.967-9.083-6.666-4.389-12.299l2.558-3.051
	c1.737-24.48,32.672-76.751,40.3-87.242L302.262,89.66z"/>
<g>
</g>
<g>
</g>
<g>
</g>
<g>
</g>
<g>
</g>
<g>
</g>
<g>
</g>
<g>
</g>
<g>
</g>
<g>
</g>
<g>
</g>
<g>
</g>
<g>
</g>
<g>
</g>
<g>
</g>
</svg>
